<svg width="11" height="10" viewBox="0 0 11 10" fill="none" xmlns="http://www.w3.org/2000/svg">
<path d="M7.17167 0.00012207H9.70273C10.0543 0.00012207 10.3531 0.132713 10.5992 0.397819C10.8452 0.662975 10.9683 0.984924 10.9683 1.36379V4.09103C10.9683 4.46987 10.8453 4.79177 10.5992 5.05687C10.3531 5.32195 10.0542 5.45459 9.70273 5.45459H8.22631C8.0506 5.45459 7.90116 5.52091 7.77811 5.65345C7.65507 5.78592 7.59356 5.94699 7.59356 6.13648V6.36362C7.59356 6.86555 7.75838 7.29392 8.08791 7.6491C8.41746 8.00411 8.81509 8.18168 9.28095 8.18168H9.70273C9.81705 8.18168 9.91588 8.22678 9.99941 8.31668C10.0829 8.40659 10.1246 8.51316 10.1246 8.63627V9.54547C10.1246 9.66839 10.0829 9.77516 9.99941 9.86508C9.91581 9.95496 9.81708 10.0001 9.70273 10.0001H9.28092C8.82389 10.0001 8.38777 9.90406 7.9725 9.71237C7.55725 9.52065 7.19805 9.26134 6.89484 8.93461C6.5917 8.60786 6.3511 8.22089 6.17315 7.77341C5.99522 7.32596 5.90623 6.85605 5.90623 6.36365V1.36369C5.90623 0.984825 6.02928 0.662901 6.2753 0.397794C6.52133 0.132688 6.82018 0.00012207 7.17167 0.00012207Z" fill="#F6762C"/>
<path d="M0.369276 0.397697C0.615281 0.132591 0.914083 0 1.26566 0H3.79662C4.1482 0 4.44698 0.132591 4.69301 0.397697C4.93901 0.662878 5.06201 0.984802 5.06201 1.36367V4.0909C5.06201 4.46974 4.93901 4.79164 4.69301 5.05675C4.44698 5.32183 4.14818 5.45447 3.79662 5.45447H2.3202C2.1445 5.45447 1.99495 5.52079 1.87192 5.65333C1.74901 5.78587 1.68737 5.94687 1.68737 6.13635V6.3635C1.68737 6.86543 1.85218 7.2938 2.18178 7.64898C2.51131 8.00399 2.90885 8.18156 3.37475 8.18156H3.79662C3.91085 8.18156 4.00978 8.22666 4.09321 8.31656C4.17671 8.40647 4.21852 8.51303 4.21852 8.63615V9.54535C4.21852 9.66826 4.17671 9.77503 4.09321 9.86496C4.0098 9.95484 3.91087 9.99996 3.79662 9.99996H3.37475C2.91778 9.99996 2.48169 9.90394 2.06637 9.71224C1.6512 9.52052 1.29205 9.26121 0.988812 8.93449C0.6856 8.60774 0.444859 8.22066 0.267028 7.77329C0.0891271 7.32594 8.4877e-05 6.85593 8.4877e-05 6.36353V1.36357C0.000154018 0.984703 0.123087 0.662779 0.369276 0.397697Z" fill="#F6762C"/>
</svg>
